PathFileType	4	(X/Y/Z)	5_coords_data.trc
DataRate	CameraRate	NumFrames	NumMarkers	Units	OrigDataRate	OrigDataStartFrame	OrigNumFrames
30.0	30.0	8	21	m	30.0	21	62
Frame#	Time	THUMB_TIP	THUMB_IP	THUMB_MCP	THUMB_CMC	INDEX_TIP	INDEX_DIP	INDEX_PIP	INDEX_MCP	MIDDLE_TIP	MIDDLE_DIP	MIDDLE_PIP	MIDDLE_MCP	RING_TIP	RING_DIP	RING_PIP	RING_MCP	PINKY_TIP	PINKY_DIP	PINKY_PIP	PINKY_MCP	WRIST
X1	Y1	Z1	X2	Y2	Z2	X3	Y3	Z3	X4	Y4	Z4	X5	Y5	Z5	X6	Y6	Z6	X7	Y7	Z7	X8	Y8	Z8	X9	Y9	Z9	X10	Y10	Z10	X11	Y11	Z11	X12	Y12	Z12	X13	Y13	Z13	X14	Y14	Z14	X15	Y15	Z15	X16	Y16	Z16	X17	Y17	Z17	X18	Y18	Z18	X19	Y19	Z19	X20	Y20	Z20	X21	Y21	Z21
19	0.6666666666666637	0.4805225951536476	-0.02451509731857493	-0.17351382520763647	0.4863357909259479	-0.024484596379940382	-0.15128308467553425	0.47540797044337924	-0.02826278688927797	-0.12238450311906503	0.47372790894000205	-0.02780633660138676	-0.07781030602613298	0.4942576892851558	-0.014607058008730522	-0.09923473803212664	0.5116385408647615	-0.019587369573636715	-0.10028473569125787	0.5314201710125158	-0.00788294019413438	-0.11046821616689582	0.499954661765294	0.020603268708888622	-0.11394581938554234	0.4988998598839516	-0.01591902655546118	-0.08457291888666649	0.5169762532236911	-0.01480372089798998	-0.0845630640687597	0.5394385734757963	0.0018527592146649896	-0.09277375156424943	0.5053972092371554	0.030641675412573788	-0.09569466681840502	0.5031406237831351	-0.004294873949704181	-0.06849820863974411	0.5211257657631421	-0.005482822769772522	-0.06884955684294354	0.5407404608922115	0.009268798527058086	-0.07307251588946019	0.5105591270454377	0.035937451696747	-0.07662087598173349	0.5056039905944634	-0.00617414534275218	-0.05096551189104363	0.5218835163396499	-0.011459583495728398	-0.05076257090731841	0.5374281877232091	0.002380607933568646	-0.05352378654134052	0.5139377838977204	0.02972671423149864	-0.05465287885722199	0.462283081001861	-0.023011742144276925	-0.051989820119430985
20	0.6999999999999968	0.48052616041139784	-0.024453919325719498	-0.17352015207159638	0.48632492606057665	-0.024442791887931636	-0.1512856250218471	0.47538533140900896	-0.028236956158623983	-0.12239359175406903	0.4737130145900271	-0.027795270219905688	-0.07781895468332567	0.4942313225146465	-0.014520586083545561	-0.09924822212118412	0.511595940390117	-0.019559616542686453	-0.10028659492068288	0.5313950423341685	-0.00787569844329139	-0.11045966982730199	0.49994595379863715	0.020629174955610452	-0.11393286961955323	0.49886406757023327	-0.015859940389148064	-0.08460328217979077	0.5169428892841063	-0.014785219845950826	-0.084568913705467	0.5394207561346617	0.0018565163534951523	-0.09276694201212406	0.5053923784561352	0.030662154902590055	-0.0956742812332096	0.5031263947594692	-0.004330676976565195	-0.06847656884325365	0.521112044155737	-0.005505901050103734	-0.06884435162086822	0.5407276402797033	0.009246215881864583	-0.07306139012282338	0.5105671081850643	0.03593971102512783	-0.07659981559255387	0.5056014599564442	-0.0061674577488610716	-0.05096894167498489	0.5218758117386925	-0.011468904807475533	-0.05076860907069636	0.5374332404271288	0.002358238237449406	-0.053523340785293	0.5139524084294465	0.029713242058086786	-0.054635880973123066	0.4622830810018608	-0.023011742144276925	-0.051989820119430985
21	0.7333333333333302	0.48053730809210393	-0.024394215194662228	-0.17352425008483793	0.48632685822472677	-0.024397616146180412	-0.15128731914337537	0.47537001062660533	-0.028209289351506794	-0.12240412960192515	0.47369674169241105	-0.027777512282834316	-0.07782943117740601	0.4942023450248406	-0.01449490938292608	-0.09923259040479783	0.51156216896071	-0.019545738894373277	-0.10029354948125221	0.5313765798603346	-0.007882823577132547	-0.11046091688897963	0.49994749786757164	0.020645796108334724	-0.11392021709771391	0.49883853372281495	-0.015684112002260164	-0.08467174223809308	0.5169271839341908	-0.014793955183826979	-0.08458034000022423	0.5394103205676569	0.001842478637495648	-0.09277467870628524	0.5053954231553976	0.030665532315285904	-0.09566712606461424	0.5031254493405641	-0.004248792483939057	-0.06850527186276185	0.5211046640814678	-0.005524342992545894	-0.06885284660359915	0.5407195860409678	0.0092271969048765	-0.07307503634086537	0.5105726136241827	0.03593901277114042	-0.07659068439327567	0.5056378235657605	-0.006137521531881074	-0.05099377518124826	0.5218940162446063	-0.011494350611020998	-0.050792325919355286	0.5374574583123912	0.0023277819346224637	-0.0535382213822892	0.5139799659538083	0.029686375832454148	-0.05463281879057126	0.4622830810018609	-0.023011742144276925	-0.051989820119430985
22	0.7666666666666633	0.4805633801810908	-0.024330819138694837	-0.17352056857764228	0.48634032343007394	-0.024348315155545586	-0.1512803657775907	0.4753631155174344	-0.02818254373877571	-0.12240789450105774	0.4736958005874463	-0.027761067695379782	-0.07783287437914324	0.4941877712751317	-0.014454649036990674	-0.09922987532579361	0.5115418933207706	-0.019521974382099683	-0.10030535748365536	0.531372789979053	-0.00787610183837284	-0.11046011121891641	0.499956606924596	0.02066929634340231	-0.11389810175595264	0.49885364236205154	-0.015605776900874724	-0.08470268155159548	0.5169468032095754	-0.014816107589068483	-0.08458455905745868	0.5394287621435396	0.0018297304930655622	-0.09276301533202048	0.50542315406669	0.030665286230953437	-0.09564003907381782	0.5031068851317599	-0.004258079120760594	-0.06848780320815107	0.5210847757675985	-0.005551333255987223	-0.06883843410745535	0.5407204742017363	0.009175295407391926	-0.07305100270802921	0.5106068396478056	0.03592638828588979	-0.07655369849246386	0.5056177775103654	-0.006227598372856136	-0.05098876685519918	0.5218929137674597	-0.011526870979238213	-0.050794731661837914	0.5374822588617146	0.0022681282514462886	-0.053530117330742505	0.5140242659911729	0.029644052411349264	-0.05460937535218921	0.4622830810018608	-0.023011742144276925	-0.051989820119430985
23	0.7999999999999965	0.48060691814531054	-0.024297749494239795	-0.1735201512950596	0.4863773518310359	-0.024322712108842848	-0.15127826576467981	0.4753731514891797	-0.02817136246610652	-0.12241799090001804	0.47367462505776825	-0.027750564715200765	-0.07784414276891509	0.4941762102449566	-0.014432455422568657	-0.09923705607589714	0.5115200002090712	-0.019536246422797277	-0.10030676029046473	0.5313649897442597	-0.007919576812277618	-0.11046743007686594	0.49998596835389697	0.020669721761477633	-0.11387992442027975	0.4988390161702533	-0.01552849826066871	-0.08475734514368974	0.5169358037354721	-0.01483187715223	-0.08461243534203203	0.53944044311877	0.0017945600230880876	-0.09276794532503932	0.505452538180874	0.030652835712876136	-0.09562629504904614	0.5031017204785653	-0.004228585846595356	-0.06850887947992122	0.521074552076701	-0.0055929430809184	-0.06884925233755318	0.5407331374231188	0.009107109430834481	-0.07304787798522829	0.5106515811595662	0.03589576933086125	-0.07653908229369065	0.5056284673242271	-0.006220637995578149	-0.051006474031539115	0.5218875984138707	-0.01156905025426136	-0.05081901064590871	0.5375146764972453	0.0021853315480989677	-0.05354360801267817	0.5140841175487256	0.029585599691782427	-0.05460080431147572	0.462283081001861	-0.023011742144276925	-0.051989820119430985
24	0.8333333333333297	0.48062957860204836	-0.024279523021819682	-0.17351485756720336	0.48639875743391214	-0.024312743478520304	-0.15127265731616632	0.4753654201533677	-0.028166325421655425	-0.1224241673268914	0.47365959621347	-0.027751764663256795	-0.0778505394280579	0.49415468646448935	-0.014409953959624633	-0.09926478523670948	0.511488435286813	-0.01955212765879255	-0.10031321330394995	0.531355322534207	-0.007966972149406781	-0.11046706951342444	0.5000172856407756	0.020669448385791656	-0.11386102835189049	0.4988194975440614	-0.015441609616661522	-0.08480612177760899	0.5169195357155788	-0.014843747231470528	-0.08462954670011881	0.5394504510205892	0.0017585187822782844	-0.09276171545926153	0.5054840220650602	0.0306433827271132	-0.09560675674145346	0.5030799123956028	-0.004110666499016147	-0.06853763865566506	0.5210423565589852	-0.005611796671457059	-0.06884942044275623	0.5407353919571282	0.009047362884484822	-0.07302953729769296	0.5106878711937097	0.03587446389889315	-0.07651866055929764	0.5056362306663823	-0.006253398254375431	-0.05100389348539809	0.5218905385042353	-0.01161697134766737	-0.050831962146719006	0.5375408224740524	0.0021143220282119346	-0.053539768064730486	0.5141350437082619	0.029536356473895076	-0.05458140054629018	0.4622830810018609	-0.023011742144276925	-0.051989820119430985
25	0.8666666666666629	0.4806560826486037	-0.024267382400355197	-0.17351446764638834	0.48642586924971487	-0.024307348503712856	-0.15127243614546154	0.47537105932783197	-0.028161939808881375	-0.12243230259061894	0.4736388965220405	-0.027751682786311127	-0.07785965064809186	0.49412004803338083	-0.014433287472192746	-0.0992663366124495	0.5114573441650951	-0.019561630065695335	-0.10032381714887315	0.5313488967595265	-0.00801233084263997	-0.11047022813203905	0.500042012620807	0.02065946778015526	-0.11385298784249465	0.4988037142436861	-0.015568804584160212	-0.08475648627350003	0.5169008356870076	-0.014875080719210398	-0.08464272044000222	0.5394560708329725	0.0017020401947516195	-0.09275875270423745	0.5055213865939949	0.030625359846140787	-0.09559189706068162	0.5030735204555982	-0.004039533607491874	-0.06855907152890406	0.5210269922844544	-0.0056477062884413565	-0.06885340113787941	0.5407445829803408	0.008980104969890212	-0.07302757577966439	0.5107289686354416	0.03584354441829474	-0.07651173285135346	0.5056295536560603	-0.006282607310036714	-0.051012876635146504	0.5218774211595717	-0.011665793319063256	-0.05084521632213748	0.5375638796070167	0.0020255607444431556	-0.05354593183553073	0.5141938289342263	0.02947827854082541	-0.054581532213769574	0.4622830810018608	-0.023011742144276925	-0.051989820119430985
26	0.8999999999999961	0.48065594383904775	-0.024266205541063846	-0.17352216311257918	0.4864343404276883	-0.024307664389599637	-0.1512823696326867	0.47537219132362896	-0.028157940183513364	-0.12244447384415245	0.4736081972263555	-0.02775209092884623	-0.07787302994553873	0.4940868427462217	-0.014390108293903747	-0.09931969689747996	0.5114024420457116	-0.019603244286592436	-0.10031630816634877	0.5313242335751774	-0.008096085438686673	-0.11045126502395662	0.5000761882522983	0.02063828938747292	-0.11384706549646177	0.498740869563814	-0.015529870741704976	-0.0847977507926157	0.5168406020508161	-0.014915836131960347	-0.08464726691642196	0.5394425164988886	0.0016073786834444048	-0.09274333913979028	0.5055632838250719	0.030594472955383423	-0.09558831367449185	0.5030618057740699	-0.004110452624292105	-0.06855958237723057	0.5210161599592703	-0.005708036080597001	-0.06885773148844693	0.5407540199128396	0.008893847850845349	-0.07302688597178915	0.5107779169264146	0.035800405735057717	-0.07651847967249072	0.5055958603953572	-0.006362278482780703	-0.05101201163392441	0.5218541756407907	-0.011714134682130783	-0.05085446607993123	0.5375856789891863	0.00192571102147443	-0.05355380499552964	0.5142579702324814	0.02941454316347425	-0.05458606592732744	0.462283081001861	-0.023011742144276925	-0.051989820119430985
